/* XPM */
static char * asb4_blank_xpm[] = {
"27 27 135 2",
"  	c None",
". 	c #020204",
"+ 	c #7E828C",
"@ 	c #C2C2CC",
"# 	c #9AA2AC",
"$ 	c #424254",
"% 	c #5A626C",
"& 	c #8E929C",
"* 	c #B2B2BC",
"= 	c #6A727C",
"- 	c #AAA6B4",
"; 	c #9E9AA4",
"> 	c #868A94",
", 	c #52525C",
"' 	c #7A7684",
") 	c #FEFEFC",
"! 	c #9A9AA4",
"~ 	c #BABAC4",
"{ 	c #D2D2DC",
"] 	c #6A667C",
"^ 	c #AAAEB4",
"/ 	c #525A6C",
"( 	c #A2A2AC",
"_ 	c #96929C",
": 	c #86828C",
"< 	c #CACAD4",
"[ 	c #BAB6C4",
"} 	c #8E8A9C",
"| 	c #7A7E8C",
"1 	c #767A8C",
"2 	c #A2A6AC",
"3 	c #B2B6BC",
"4 	c #72727C",
"5 	c #AAAAB4",
"6 	c #6A6E7C",
"7 	c #4A4A5C",
"8 	c #666A7C",
"9 	c #5E5A6C",
"0 	c #96969C",
"a 	c #727684",
"b 	c #CAC6D4",
"c 	c #626274",
"d 	c #A69EAC",
"e 	c #8A8E94",
"f 	c #5A5664",
"g 	c #7A7A84",
"h 	c #BABEC4",
"i 	c #868694",
"j 	c #AAAABC",
"k 	c #828694",
"l 	c #C6C6CC",
"m 	c #42465C",
"n 	c #9296A4",
"o 	c #B6B2BC",
"p 	c #9E9EAC",
"q 	c #52566C",
"r 	c #9A9EA4",
"s 	c #D6DADC",
"t 	c #6A6A74",
"u 	c #B2AEBC",
"v 	c #5A5A64",
"w 	c #A6A2AC",
"x 	c #D2CEDC",
"y 	c #8E8E9C",
"z 	c #827E8C",
"A 	c #A6A6AC",
"B 	c #76727C",
"C 	c #9A96AC",
"D 	c #666674",
"E 	c #82828C",
"F 	c #92929C",
"G 	c #A29AAC",
"H 	c #8A8A94",
"I 	c #D6D6DC",
"J 	c #AEAEB4",
"K 	c #CECED4",
"L 	c #B6B6BC",
"M 	c #AEAAAC",
"N 	c #726E7C",
"O 	c #9A96A4",
"P 	c #66626C",
"Q 	c #7E7A8C",
"R 	c #BEBEC4",
"S 	c #8A8694",
"T 	c #6E6A74",
"U 	c #5A5E6C",
"V 	c #928E9C",
"W 	c #C6C2CC",
"X 	c #9EA2AC",
"Y 	c #42425C",
"Z 	c #B2B2C4",
"` 	c #AEA6B4",
" .	c #9E9AAC",
"..	c #525264",
"+.	c #7A768C",
"@.	c #9A9AAC",
"#.	c #BEBAC4",
"$.	c #D6D2DC",
"%.	c #A2A2B4",
"&.	c #9692A4",
"*.	c #868294",
"=.	c #CECAD4",
"-.	c #BEB6C4",
";.	c #7E7E8C",
">.	c #A2A6B4",
",.	c #727284",
"'.	c #6E6E7C",
").	c #4E4E5C",
"!.	c #625E74",
"~.	c #9696A4",
"{.	c #767684",
"].	c #8A8E9C",
"^.	c #7A7A8C",
"/.	c #AEAABC",
"(.	c #C6C6D4",
"_.	c #464654",
":.	c #B6B2C4",
"<.	c #565664",
"[.	c #9A9EAC",
"}.	c #6A6A7C",
"|.	c #5A5A6C",
"1.	c #A6A2B4",
"2.	c #8E8EA4",
"3.	c #827E94",
"4.	c #A6A6B4",
"5.	c #767284",
"6.	c #828294",
"7.	c #9292A4",
"8.	c #8A8A9C",
"9.	c #AEAEBC",
"0.	c #B6B6C4",
"a.	c #AEAAB4",
"b.	c #666274",
"c.	c #BEBECC",
"d.	c #8A869C",
") ) ) ) ) ) ) ) ) ) ) ) ) ) ) ) ) ) ) ) ) ) ) ) ) ) M ",
") s I s I $.$.K =.< (.l W R c.R #.0.* /./.` ` G &.k . ",
") { K { K K =.=.b l W #.#.-.:.[ o * ^ 1.A 2 2 ! y 1 . ",
") x < x K (.< (.@ R c.~ 0.:.[ :.9.j a.- ( p X ~.y g . ",
") K < K =.(.(.@ c.h h 0.:.u u u 9./.5 ( X  .[.& 8.{.. ",
") =.l < (.W @ R ~ [ 0.u u /././.1.w ( p @.! O V i ,.. ",
") < W < l @ R #.[ :.0.u /.4.4.5 A 2 X ; ! ! ! e E '.. ",
") =.@ b @ c.~ ~ :.Z u /.j 4.4.%.A X [.! n 7.7.> E 4 . ",
") W h W #.#.[ Z u u /.4.4.A A 2 [.r ! 7.n F V i ;.8 . ",
") c.#.#.h [ 0.u u a.4.1.( X X p r O n & } y V : ' D . ",
") ~ #.[ ~ :.Z j /.5 4.1.d [.[.p ! ~.7.].H 8.8.;.{.% . ",
") #.~ #.#.[ Z 9.5 - >.2 ( [.@.@.! ~.n ].} d.8.3.5.c . ",
") #.0.~ 0.u 9.^ 5 4.1.X p p r @.~._ F 8.H i i | ,.U . ",
") [ 3 [ Z Z ^ J 4.%.%.p  .O O O ~.F V 8.i k k +.4 c . ",
") u 9.Z ^ /.- >.w d p @.! ~.n n F } 8.k : E E ' T v . ",
") u /.9./.5 4.d p [.@.! ~.n _ F y } S E ;.;.;.4 t v . ",
") ^ /.9.5 5 >.d  .@.! ~.&.F F V 8.H S E ;.| ^.,.D <.. ",
") /.5 /./.4.4.%.p p ! ! ~.0 _ _ y } H E ;.;.| a t v . ",
") 9.5 9.a.4.1.d p [.! ! 7.F F V H H H E | | g ,.D <.. ",
") /.a.j a.- >.d @.@.! ~.n _ F F 8.S S : ;.^.| = 8 f . ",
") 4.5 4.4.%.p  .! ~._ F y } } } H i E Q g {.1 N D , . ",
") >.%.>.>.p @.@.7.7.F y 8.8.H d.6.E z ' a ,.4 t P ).. ",
") >.@.%.@.! O &.F & ].> *.6.6.E ^.g 1 4 }.] }.c 9 7 . ",
") O 7.! 7.y 8.i *.6.z Q g ' {.{.4 4 '.] D b.P 9 , m . ",
") } d.8.d.*.6.;.^.1 {.5.N '.'.'.D D D !.U !.U <.).$ . ",
") | {.;.' a a = }.t }.D c % U U / q q )...)..._.$ $ . ",
". . . . . . . . . . . . . . . . . . . . . . . . . . . "};
